HIERARCHY
ROOT Hips
{
  OFFSET 179.979 97.3047 303.174
  CHANNELS 6 Xposition Yposition Zposition Zrotation Xrotation Yrotation
  JOINT Spine
  {
    OFFSET 0.000859786 9.92346 -1.22733
    CHANNELS 3 Zrotation Xrotation Yrotation
    JOINT Spine1
    {
      OFFSET 0 11.732 0
      CHANNELS 3 Zrotation Xrotation Yrotation
      JOINT Spine2
      {
        OFFSET 0 13.4588 0
        CHANNELS 3 Zrotation Xrotation Yrotation
        JOINT Neck
        {
          OFFSET 2.54812e-05 15.0278 0.877907
          CHANNELS 3 Zrotation Xrotation Yrotation
          JOINT Head
          {
            OFFSET 0 10.3218 3.14243
            CHANNELS 3 Zrotation Xrotation Yrotation
            End Site
            {
              OFFSET 0 0 0
            }
          }
        }
        JOINT LeftShoulder
        {
          OFFSET 6.10582 9.10629 0.757062
          CHANNELS 3 Zrotation Xrotation Yrotation
          JOINT LeftArm
          {
            OFFSET 0 12.9223 0
            CHANNELS 3 Zrotation Xrotation Yrotation
            JOINT LeftForeArm
            {
              OFFSET 0 27.4047 0
              CHANNELS 3 Zrotation Xrotation Yrotation
              JOINT LeftHand
              {
                OFFSET -1.28204e-05 27.6145 0
                CHANNELS 3 Zrotation Xrotation Yrotation
                End Site
                {
                  OFFSET 0 0 0
                }
              }
            }
          }
        }
        JOINT RightShoulder
        {
          OFFSET -6.1057 9.10638 0.757076
          CHANNELS 3 Zrotation Xrotation Yrotation
          JOINT RightArm
          {
            OFFSET 0 12.9223 0
            CHANNELS 3 Zrotation Xrotation Yrotation
            JOINT RightForeArm
            {
              OFFSET 0 27.4047 0
              CHANNELS 3 Zrotation Xrotation Yrotation
              JOINT RightHand
              {
                OFFSET 1.28428e-05 27.6145 1.44975e-05
                CHANNELS 3 Zrotation Xrotation Yrotation
                End Site
                {
                  OFFSET 0 0 0
                }
              }
            }
          }
        }
      }
    }
  }
  JOINT LeftUpLeg
  {
    OFFSET 9.12387 -6.65719 -0.0554031
    CHANNELS 3 Zrotation Xrotation Yrotation
    JOINT LeftLeg
    {
      OFFSET 0 40.5994 0
      CHANNELS 3 Zrotation Xrotation Yrotation
      JOINT LeftFoot
      {
        OFFSET 0 42.099 0
        CHANNELS 3 Zrotation Xrotation Yrotation
        JOINT LeftToeBase
        {
          OFFSET 0 15.7216 0
          CHANNELS 3 Zrotation Xrotation Yrotation
          End Site
          {
            OFFSET 0 0 0
          }
        }
      }
    }
  }
  JOINT RightUpLeg
  {
    OFFSET -9.12503 -6.6556 -0.0553527
    CHANNELS 3 Zrotation Xrotation Yrotation
    JOINT RightLeg
    {
      OFFSET 0 40.5994 0
      CHANNELS 3 Zrotation Xrotation Yrotation
      JOINT RightFoot
      {
        OFFSET 0 42.099 0
        CHANNELS 3 Zrotation Xrotation Yrotation
        JOINT RightToeBase
        {
          OFFSET 0 15.7216 0
          CHANNELS 3 Zrotation Xrotation Yrotation
          End Site
          {
            OFFSET 0 0 0
          }
        }
      }
    }
  }
}
MOTION
Frames:	13
Frame Time:	0.0333333
256.468 99.6643 -177.686 0.670452 -5.22332 -4.40312 -0.185504 -5.20448 0.0771206 -0.408354 3.53989 0.210987 -0.422769 10.1343 0.21335 -13.1548 11.9744 -10.75 22.9984 -19.0523 -17.0431 -89.054 -15.9557 90.1077 18.1805 9.02772 -10.6622 17.1728 -16.1026 -0.737796 -14.4703 -5.15348 36.565 90.2779 -20.5643 -89.7272 -20.3292 7.24901 12.1307 -14.6082 -14.8032 0.699161 7.9024 -3.59521 -13.3246 -176.541 -6.3329 -0.322041 -2.34939 -7.51332 -8.68416 12.3486 65.0295 -14.4324 -0.96527 26.367 -3.60229 174.771 -7.05197 2.95443 4.87327 -9.92612 9.6641 -20.5307 70.5974 20.3859 0.963531 26.3682 3.55537 
256.449 99.664 -177.693 0.686329 -5.2048 -4.32156 -0.185718 -5.20027 0.0838516 -0.405504 3.54837 0.22439 -0.42366 10.1428 0.227229 -13.0687 11.8076 -10.5778 22.8374 -19.0181 -16.8112 -89.054 -15.9557 90.1077 18.2195 9.00526 -10.6873 17.1966 -16.1195 -0.737859 -14.489 -5.16757 36.5691 90.278 -20.5502 -89.7269 -20.3213 7.22434 12.0283 -14.5867 -14.819 0.699212 7.79379 -3.66522 -13.2202 -176.529 -6.30738 -0.28119 -2.34912 -7.49256 -8.66045 12.3017 65.0088 -14.3822 -0.96527 26.367 -3.60229 174.782 -7.04277 2.96956 4.87914 -9.92513 9.7071 -20.6187 70.5891 20.4713 0.963531 26.3682 3.55537 
256.407 99.6657 -177.708 0.718483 -5.16305 -4.14384 -0.186198 -5.19019 0.0987774 -0.399152 3.5684 0.254215 -0.425662 10.1628 0.25809 -12.8917 11.4217 -10.1971 22.4826 -18.9231 -16.3051 -89.0585 -15.9602 90.1066 18.31 8.96121 -10.7449 17.2518 -16.1665 -0.74415 -14.4886 -5.20298 36.5928 90.2719 -20.5315 -89.7288 -20.3013 7.1646 11.8112 -14.5764 -14.8373 0.699271 7.64493 -3.7922 -13.0433 -176.501 -6.22695 -0.272983 -2.34774 -7.4849 -8.56245 12.1305 64.9807 -14.2034 -0.96527 26.367 -3.60229 174.808 -7.0172 2.99447 4.89208 -9.91924 9.80635 -20.827 70.5752 20.6738 0.963531 26.3682 3.55537 
256.364 99.6676 -177.726 0.749041 -5.11987 -3.96413 -0.183058 -5.17915 0.113781 -0.392964 3.59051 0.28333 -0.427648 10.1849 0.288195 -12.809 11.0236 -9.84688 22.2457 -18.8216 -15.8694 -89.0675 -15.9714 90.1045 18.4082 8.9186 -10.8055 17.3096 -16.2219 -0.751116 -14.3979 -5.23392 36.6107 90.2629 -20.5102 -89.7317 -20.2935 7.1286 11.7343 -14.6481 -14.8209 0.699219 7.72685 -3.69707 -13.1608 -176.472 -6.14225 -0.287961 -2.34062 -7.48247 -8.44931 11.9369 64.9559 -14.0022 -0.96527 26.367 -3.60229 174.837 -6.99016 3.01645 4.90526 -9.91202 9.90897 -21.0415 70.5594 20.8823 0.963531 26.3682 3.55537 
256.322 99.6694 -177.744 0.777757 -5.07581 -3.78789 -0.18008 -5.16772 0.127863 -0.387157 3.61332 0.310666 -0.425221 10.2077 0.315949 -12.7708 10.6435 -9.55279 22.0909 -18.7111 -15.5155 -89.0805 -15.9943 90.1017 18.5081 8.87795 -10.8656 17.3665 -16.2785 -0.758265 -14.2455 -5.25503 36.5959 90.2525 -20.4643 -89.7366 -20.2944 7.14621 11.841 -14.7464 -14.8305 0.699249 7.84059 -3.5097 -13.5061 -176.444 -6.05292 -0.31446 -2.32941 -7.48618 -8.33149 11.7368 64.9333 -13.7954 -0.96527 26.367 -3.60229 174.866 -6.95956 3.04216 4.92105 -9.90685 10.0074 -21.2467 70.5436 21.0817 0.963531 26.3682 3.55537 
256.281 99.6705 -177.762 0.805189 -5.03153 -3.61919 -0.177194 -5.15677 0.141973 -0.381322 3.63518 0.33807 -0.422779 10.2295 0.343793 -12.6736 10.309 -9.33038 21.9265 -18.6236 -15.2171 -89.0837 -16.0199 90.1017 18.6011 8.84555 -10.9205 17.417 -16.3252 -0.764364 -14.0934 -5.28008 36.5327 90.2528 -20.3733 -89.7453 -20.2699 7.19589 11.9892 -14.8423 -14.8554 0.69933 7.92276 -3.32496 -13.8352 -176.419 -5.96475 -0.340101 -2.31528 -7.49182 -8.21859 11.5447 64.9129 -13.5989 -0.96527 26.367 -3.60229 174.895 -6.92458 3.08024 4.93401 -9.90913 10.0934 -21.4272 70.531 21.2571 0.963531 26.3682 3.55537 
256.243 99.6707 -177.777 0.830402 -4.98915 -3.45828 -0.17437 -5.14683 0.155496 -0.375738 3.65505 0.364343 -0.416932 10.2494 0.369553 -12.531 10.0461 -9.16833 21.7791 -18.5827 -14.9683 -89.0818 -16.0476 90.1031 18.6829 8.82157 -10.9676 17.4593 -16.3576 -0.768593 -14.0095 -5.28084 36.4084 90.2598 -20.2493 -89.7571 -20.2493 7.25332 12.0702 -14.8733 -14.8704 0.69992 7.92011 -3.22961 -13.9428 -176.397 -5.87977 -0.348953 -2.30068 -7.49958 -8.12046 11.3752 64.8941 -13.4281 -0.96527 26.367 -3.60229 174.924 -6.89064 3.15106 4.9357 -9.91575 10.1536 -21.5568 70.5226 21.3828 0.963531 26.3682 3.55537 
256.206 99.6707 -177.788 0.85327 -4.94965 -3.30442 -0.171658 -5.13865 0.168264 -0.365027 3.67136 0.387724 -0.408937 10.2657 0.393284 -12.3675 9.85844 -9.06259 21.6636 -18.5816 -14.7755 -89.0783 -16.064 90.1017 18.7333 8.80252 -11.0065 17.4998 -16.3784 -0.771687 -14.0328 -5.22187 36.3268 90.2719 -20.1417 -89.7671 -20.2676 7.30814 12.1063 -14.8822 -14.8552 0.700317 7.84631 -3.28765 -13.9496 -176.376 -5.80355 -0.323154 -2.28926 -7.50496 -8.04709 11.243 64.8763 -13.2989 -0.96527 26.367 -3.60229 174.957 -6.86084 3.25803 4.92281 -9.92746 10.1861 -21.6343 70.5211 21.4577 0.963531 26.3682 3.55537 
256.173 99.6706 -177.792 0.876234 -4.91218 -3.158 -0.168967 -5.13348 0.181413 -0.353434 3.68173 0.411586 -0.400168 10.276 0.417516 -12.1988 9.71341 -8.99152 21.5794 -18.5753 -14.6253 -89.074 -16.0932 90.0994 18.7985 8.78461 -11.0368 17.5233 -16.3947 -0.773705 -14.1185 -5.1457 36.3272 90.2903 -20.0678 -89.7737 -20.3122 7.34947 12.1003 -14.919 -14.8199 0.700627 7.75329 -3.43547 -13.9067 -176.36 -5.7312 -0.238689 -2.28212 -7.51289 -8.01349 11.1694 64.8595 -13.2354 -0.96527 26.367 -3.60229 174.99 -6.83276 3.39127 4.8966 -9.94906 10.1972 -21.6746 70.5299 21.4966 0.963531 26.3682 3.55537 
256.142 99.6702 -177.787 0.899716 -4.87741 -3.01905 -0.166178 -5.13293 0.194806 -0.340974 3.68468 0.435745 -0.390518 10.279 0.442008 -12.0345 9.60687 -8.94338 21.5251 -18.556 -14.5093 -89.0718 -16.1194 90.0966 18.8555 8.76391 -11.0588 17.5349 -16.4082 -0.775246 -14.2142 -5.10823 36.3932 90.3125 -19.9977 -89.7799 -20.3562 7.36709 12.0365 -14.9895 -14.8 0.701032 7.72149 -3.58385 -14.0606 -176.348 -5.66853 -0.090325 -2.28617 -7.52076 -8.02279 11.1623 64.8465 -13.2432 -0.96527 26.367 -3.60229 175.019 -6.80862 3.51513 4.86986 -9.97687 10.2086 -21.716 70.5449 21.5427 0.963531 26.3682 3.55537 
256.12 99.6697 -177.767 0.918829 -4.85387 -2.92929 -0.156914 -5.13452 0.216835 -0.323176 3.68109 0.4773 -0.377614 10.2753 0.48417 -11.8711 9.54865 -8.91301 21.489 -18.5403 -14.4185 -89.0703 -16.1365 90.0954 18.8966 8.74072 -11.0724 17.5311 -16.4219 -0.776694 -14.2829 -5.10091 36.3933 90.3404 -19.9277 -89.7859 -20.3932 7.34704 11.9841 -15.0736 -14.7958 0.701607 7.78499 -3.689 -14.2406 -176.344 -5.64154 0.0440575 -2.29399 -7.51497 -8.0525 11.1926 64.8396 -13.2881 -0.96527 26.367 -3.60229 175.036 -6.79434 3.57063 4.85213 -10.0078 10.2307 -21.775 70.5628 21.6117 0.963531 26.3682 3.55537 
256.102 99.6693 -177.74 0.942652 -4.84164 -2.83484 -0.14841 -5.1373 0.23599 -0.306778 3.67404 0.513292 -0.365426 10.2683 0.520657 -11.7113 9.52879 -8.89337 21.4633 -18.5258 -14.345 -89.0671 -16.1474 90.0948 18.9116 8.6975 -11.0027 17.5159 -16.4383 -0.778091 -14.3052 -5.11154 36.2192 90.371 -19.8619 -89.7915 -20.4322 7.29992 11.9179 -15.0674 -14.8183 0.702457 7.69881 -3.70311 -14.2666 -176.346 -5.63189 0.155791 -2.30052 -7.51073 -8.06574 11.2065 64.842 -13.311 -0.96527 26.367 -3.60229 175.043 -6.79809 3.62439 4.83806 -10.0399 10.255 -21.8396 70.5864 21.6911 0.963531 26.3682 3.55537 
256.087 99.665 -177.705 0.96987 -4.84032 -2.72636 -0.140813 -5.14212 0.250224 -0.292077 3.66441 0.539647 -0.35381 10.2586 0.547421 -11.5568 9.51617 -8.87813 21.4499 -18.4952 -14.2824 -89.0594 -16.1565 90.0941 18.9177 8.6357 -10.8989 17.4853 -16.4467 -0.779599 -14.294 -5.12538 36.0327 90.3989 -19.8066 -89.796 -20.4749 7.24218 11.8412 -15.0025 -14.8566 0.703617 7.60073 -3.66699 -14.1883 -176.357 -5.61953 0.14135 -2.28335 -7.54593 -7.99475 11.1085 64.8755 -13.2129 -0.96527 26.367 -3.60229 175.043 -6.81915 3.68502 4.82671 -10.0751 10.2822 -21.9115 70.6162 21.7828 0.963531 26.3682 3.55537 
